<?xml version="1.0" encoding="UTF-8" standalone="no"?><!-- Generator: Gravit.io --><svg xmlns="http://www.w3.org/2000/svg" xmlns:xlink="http://www.w3.org/1999/xlink" style="isolation:isolate" viewBox="0 0 16 16" width="16pt" height="16pt"><path d=" M 13.529 4.356 L 13.403 3.976 L 11.397 5.982 L 10.412 5.588 L 10.019 4.602 L 12.024 2.596 L 11.644 2.471 C 11.345 2.372 11.031 2.322 10.716 2.321 C 9.082 2.321 7.753 3.65 7.753 5.284 C 7.753 5.65 7.82 6.007 7.953 6.348 L 2.673 11.627 C 2.447 11.852 2.32 12.159 2.321 12.478 C 2.321 12.799 2.446 13.1 2.673 13.328 C 2.898 13.553 3.204 13.679 3.523 13.679 C 3.831 13.679 4.139 13.562 4.373 13.328 L 9.652 8.049 C 9.994 8.181 10.351 8.247 10.716 8.247 C 12.35 8.247 13.679 6.918 13.679 5.284 C 13.679 4.969 13.628 4.656 13.529 4.356 L 13.529 4.356 Z " fill="rgb(135,206,235)"/></svg>